#!OML:ASF H:\Terrain\Patient Classification 1\Walking\liu\liu.ASF
:FULLY-SPECIFIED
:DEGREES
162
root 12.364574 24.860100 -21.233700 11.989395 14.697855 -0.799509
lowerback -7.360275 -3.311490 -1.391493
upperback -2.993610 -4.407420 5.379315
thorax 1.395702 -2.187690 6.070650
lowerneck -28.294502 -10.476345 -22.554600
upperneck 22.554150 -12.573090 22.186800
head 13.696560 -5.068935 9.682125
rclavicle 0.000000 -0.000000
rhumerus -68.237549 12.245325 -121.967545
rradius 49.611450
rwrist -26.420399
rhand -41.366852 -44.556900
rfingers 10.687531
rthumb -1.467397 -89.523148
lclavicle 0.000000 -0.000000
lhumerus -65.793152 -15.330299 143.762253
lradius 35.897850
lwrist -0.155044
lhand -1.893015 -26.770649
lfingers 10.687531
lthumb 36.571503 15.932701
rfemur -45.232800 2.150025 34.734901
rtibia 47.820000
rfoot -18.150299 -0.242040
rtoes -20.304449
lfemur -6.275445 11.994705 -20.924099
ltibia 78.963150
lfoot 3.731625 18.855900
ltoes -24.205498
163
root 12.343891 24.916050 -21.050850 12.252211 14.529749 -1.080634
lowerback -7.534290 -3.049740 -1.098595
upperback -2.985285 -4.073085 5.383755
thorax 1.462075 -2.021340 5.924565
lowerneck -27.899399 -10.540815 -22.659750
upperneck 22.010401 -12.708826 22.553699
head 13.489470 -5.121510 9.801929
rclavicle 0.000000 -0.000000
rhumerus -67.812897 12.977625 -122.287949
rradius 49.911301
rwrist -27.189749
rhand -42.099602 -43.173302
rfingers 10.687531
rthumb -2.175090 -88.135498
lclavicle 0.000000 -0.000000
lhumerus -66.684753 -16.711050 144.603745
lradius 37.330650
lwrist 2.033820
lhand -0.681560 -26.750399
lfingers 10.687531
lthumb 37.732651 15.793501
rfemur -44.205601 1.849920 35.317650
rtibia 46.565701
rfoot -18.611099 0.393464
rtoes -22.419001
lfemur -8.805285 12.105690 -21.121651
ltibia 81.378746
lfoot 3.765195 19.787251
ltoes -15.803101
164
root 12.337275 24.964050 -20.856600 11.895375 14.282070 -1.462065
lowerback -7.410780 -2.751090 -0.506977
upperback -2.645580 -3.708060 5.237865
thorax 1.684545 -1.844910 5.459490
lowerneck -28.084351 -10.657681 -21.989700
upperneck 21.845251 -12.956280 22.272301
head 13.461720 -5.217525 9.538650
rclavicle 0.000000 -0.000000
rhumerus -67.493698 13.520685 -122.502899
rradius 50.753250
rwrist -27.826649
rhand -42.412350 -41.240551
rfingers 10.687531
rthumb -2.477085 -86.200645
lclavicle 0.000000 -0.000000
lhumerus -67.432953 -18.233101 145.166855
lradius 38.808300
lwrist 4.729680
lhand -0.934687 -27.433050
lfingers 10.687531
lthumb 37.490101 15.144600
rfemur -42.515999 1.807500 35.914501
rtibia 45.463951
rfoot -19.215900 0.928707
rtoes -22.452600
lfemur -10.509855 12.200819 -21.225300
ltibia 83.355148
lfoot 7.871745 20.404650
ltoes 3.341310
165
root 12.329460 25.004398 -20.662800 11.363461 13.916716 -1.639770
lowerback -6.870585 -2.418330 -0.302899
upperback -2.470845 -3.269715 5.231685
thorax 1.525800 -1.625940 5.377185
lowerneck -27.966599 -10.816095 -21.854099
upperneck 21.887402 -13.187580 22.038149
head 13.473030 -5.344110 9.395325
rclavicle -0.000000 0.000000
rhumerus -67.745102 14.434019 -122.456703
rradius 52.384499
rwrist -28.524899
rhand -42.477753 -39.967350
rfingers 10.687531
rthumb -2.540280 -84.926849
lclavicle -0.000000 0.000000
lhumerus -68.194351 -19.083000 145.763092
lradius 39.956848
lwrist 6.527431
lhand -1.243128 -27.957899
lfingers 10.687531
lthumb 37.194450 14.660806
rfemur -40.681053 1.921860 36.280949
rtibia 44.488503
rfoot -19.689600 1.272349
rtoes -22.083900
lfemur -12.036884 12.268486 -21.523800
ltibia 85.038452
lfoot 2.605230 19.731152
ltoes -20.166901
166
root 12.309765 25.041899 -20.479801 11.343015 13.541716 -1.489274
lowerback -6.580215 -2.133360 -0.605202
upperback -2.522220 -2.871375 5.286000
thorax 1.296625 -1.423658 5.634945
lowerneck -27.865200 -10.902719 -22.336500
upperneck 22.077900 -13.242420 22.195351
head 13.560061 -5.386020 9.532065
rclavicle -0.000000 -0.000000
rhumerus -67.865997 15.409650 -122.308350
rradius 53.802601
rwrist -28.989300
rhand -42.959099 -37.838249
rfingers 10.687531
rthumb -3.005220 -82.793701
lclavicle -0.000000 -0.000000
lhumerus -68.840256 -19.739700 146.477249
lradius 40.878601
lwrist 7.921275
lhand -1.392960 -28.415848
lfingers 10.687531
lthumb 37.050900 14.222460
rfemur -39.455551 2.094930 36.308701
rtibia 43.582951
rfoot -20.025299 1.488258
rtoes -23.066851
lfemur -14.133030 12.296341 -22.211550
ltibia 86.572647
lfoot 0.127648 19.055401
ltoes -24.330299
167
root 12.294044 25.072649 -20.300400 11.566875 13.180844 -1.548255
lowerback -6.768180 -1.908780 -0.558721
upperback -2.471205 -2.577915 5.290905
thorax 1.432629 -1.278408 5.625075
lowerneck -28.018049 -10.916070 -22.570351
upperneck 22.002600 -13.221689 22.462502
head 13.585095 -5.358840 9.669720
rclavicle -0.000000 0.000000
rhumerus -67.241394 16.373850 -122.438095
rradius 54.453903
rwrist -29.371498
rhand -43.960499 -36.377548
rfingers 10.687531
rthumb -3.972345 -81.322502
lclavicle -0.000000 0.000000
lhumerus -69.199951 -19.855200 146.587494
lradius 41.803497
lwrist 8.954340
lhand -1.301708 -28.706848
lfingers 10.687531
lthumb 37.138351 13.919520
rfemur -38.545349 2.276940 36.550049
rtibia 42.792149
rfoot -20.343151 1.776720
rtoes -23.282700
lfemur -16.477200 12.512790 -22.694700
ltibia 88.066200
lfoot -1.390179 18.419701
ltoes -19.324650
168
root 12.278355 25.099499 -20.123249 11.766705 12.986700 -2.122890
lowerback -6.996435 -1.677300 -0.001163
upperback -2.414400 -2.299710 5.375535
thorax 1.587360 -1.140945 5.408490
lowerneck -27.955349 -10.945230 -22.397100
upperneck 21.614849 -13.307775 22.612499
head 13.457924 -5.379285 9.671776
rclavicle -0.000000 -0.000000
rhumerus -66.259949 16.908901 -122.450104
rradius 54.742802
rwrist -29.663250
rhand -44.473949 -36.787201
rfingers 10.687531
rthumb -4.468155 -81.725548
lclavicle -0.000000 -0.000000
lhumerus -69.588898 -20.561251 146.803955
lradius 42.878098
lwrist 10.482690
lhand -1.232242 -28.525949
lfingers 10.687531
lthumb 37.204952 14.091270
rfemur -37.748699 2.550105 37.336502
rtibia 42.138149
rfoot -20.656200 1.848030
rtoes -22.411951
lfemur -18.934050 12.743864 -22.561350
ltibia 89.490295
lfoot -2.787585 17.478001
ltoes -17.234850
169
root 12.259561 25.118252 -19.953451 11.881845 12.779700 -2.479830
lowerback -7.054785 -1.413960 0.348045
upperback -2.298765 -1.968120 5.318490
thorax 1.708845 -0.976678 5.169075
lowerneck -27.670048 -10.992015 -22.194450
upperneck 21.219601 -13.473510 22.847549
head 13.306126 -5.437590 9.689790
rclavicle 0.000000 -0.000000
rhumerus -65.358154 16.951050 -122.330246
rradius 55.321648
rwrist -29.887051
rhand -44.547302 -37.631550
rfingers 10.687531
rthumb -4.538940 -82.568848
lclavicle 0.000000 -0.000000
lhumerus -69.850349 -21.367800 146.881653
lradius 43.964851
lwrist 12.378105
lhand -5.323140 -30.852001
lfingers 10.687531
lthumb 33.280800 12.268021
rfemur -36.913200 2.972460 37.830299
rtibia 41.541748
rfoot -20.973450 1.796055
rtoes -20.995649
lfemur -21.331200 12.774179 -22.702200
ltibia 90.699448
lfoot -4.000545 16.383450
ltoes -20.347351
170
root 12.249105 25.127548 -19.779449 11.849010 12.364861 -2.544345
lowerback -7.531260 -0.852988 0.476931
upperback -0.534185 -1.296433 5.310690
thorax 3.750555 -0.666690 5.119515
lowerneck -32.320351 -12.206280 -22.648350
upperneck 21.575850 -14.535480 23.387850
head 14.491605 -5.703135 9.748560
rclavicle -0.000000 -0.000000
rhumerus -61.286697 16.394100 -121.135048
rradius 55.725300
rwrist -30.246300
rhand -45.084450 -37.538551
rfingers 10.687531
rthumb -5.057805 -82.468201
lclavicle -0.000000 -0.000000
lhumerus -66.423752 -22.677599 146.585251
lradius 44.386051
lwrist 14.872290
lhand -17.215799 -39.034348
lfingers 10.687531
lthumb 21.841051 5.169090
rfemur -35.953651 3.057825 38.034901
rtibia 41.086048
rfoot -21.254250 2.249085
rtoes -20.638800
lfemur -23.351999 12.844891 -23.234400
ltibia 91.648201
lfoot -5.709375 15.771900
ltoes -20.249250
171
root 12.240284 25.135799 -19.597649 11.909370 11.959394 -2.652930
lowerback -6.855960 -0.626511 0.646757
upperback -2.364765 -0.923784 5.358945
thorax 1.465645 -0.451560 5.103315
lowerneck -26.436451 -11.425995 -23.730600
upperneck 20.568001 -13.986360 23.904600
head 13.094356 -5.724315 10.254435
rclavicle 0.000000 -0.000000
rhumerus -64.636948 17.270250 -121.438644
rradius 56.829449
rwrist -30.072750
rhand -44.596050 -36.444000
rfingers 10.687531
rthumb -4.586025 -81.380699
lclavicle 0.000000 -0.000000
lhumerus -70.777344 -21.989552 147.641251
lradius 45.677250
lwrist 16.706400
lhand -16.634550 -38.659798
lfingers 10.687531
lthumb 22.401150 5.502585
rfemur -35.254951 2.957160 38.350052
rtibia 40.905300
rfoot -21.407700 2.786760
rtoes -22.468349
lfemur -25.359301 12.906916 -23.719051
ltibia 92.371948
lfoot -7.244850 15.274950
ltoes -17.033251
